<svg width="15" height="13" viewBox="0 0 15 13" fill="none" xmlns="http://www.w3.org/2000/svg">
<path fill-rule="evenodd" clip-rule="evenodd" d="M13.1008 3.28912C13.1058 3.41612 13.1098 3.54312 13.1098 3.67212C13.1098 7.57612 10.1368 12.0781 4.70283 12.0781C3.03483 12.0781 1.48083 11.5881 0.173828 10.7501C0.406828 10.7771 0.641828 10.7911 0.879828 10.7911C2.26383 10.7911 3.53783 10.3181 4.54883 9.52512C3.25583 9.50212 2.16583 8.64812 1.78783 7.47512C1.96883 7.51012 2.15483 7.52712 2.34483 7.52712C2.61383 7.52712 2.87483 7.49212 3.12283 7.42412C1.77183 7.15212 0.751828 5.95912 0.751828 4.52712V4.49012C1.15083 4.71112 1.60783 4.84412 2.09183 4.85912C1.29883 4.33012 0.777828 3.42612 0.777828 2.40012C0.777828 1.85912 0.922828 1.35212 1.17683 0.916122C2.63283 2.70312 4.81083 3.87912 7.26583 4.00212C7.21583 3.78512 7.19083 3.56012 7.19083 3.32812C7.19083 1.69712 8.51283 0.375122 10.1448 0.375122C10.9938 0.375122 11.7618 0.732122 12.2998 1.30712C12.9738 1.17612 13.6058 0.930122 14.1768 0.590122C13.9558 1.28112 13.4888 1.85912 12.8768 2.22512C13.4748 2.15412 14.0448 1.99612 14.5758 1.76012C14.1778 2.35212 13.6778 2.87312 13.1008 3.28912Z" fill="white"/>
</svg>
