<svg width="18" height="18" viewBox="0 0 18 18" fill="none" xmlns="http://www.w3.org/2000/svg">
<path d="M11.365 0.26001C7.94497 0.26001 5.16497 3.08001 5.16497 6.52001C5.16497 7.98001 5.66497 9.30002 6.48497 10.38L0.604976 16.32C0.264976 16.68 0.264976 17.24 0.604976 17.58C0.784976 17.76 1.00498 17.84 1.22498 17.84C1.46498 17.84 1.68497 17.76 1.86497 17.58L7.74498 11.62C8.76498 12.36 10.005 12.78 11.345 12.78C14.765 12.78 17.545 9.96001 17.545 6.52001C17.565 3.06001 14.785 0.26001 11.365 0.26001ZM11.365 11.2C8.82497 11.2 6.76497 9.10001 6.76497 6.52001C6.76497 3.94001 8.82497 1.84001 11.365 1.84001C13.905 1.84001 15.965 3.94001 15.965 6.52001C15.965 9.10001 13.905 11.2 11.365 11.2ZM14.465 6.60001C14.425 6.94001 14.125 7.20001 13.785 7.20001C13.745 7.20001 13.725 7.20001 13.685 7.20001C13.305 7.14001 13.045 6.80001 13.085 6.42001C13.225 5.38001 12.065 4.84001 12.005 4.82001C11.665 4.66001 11.505 4.24001 11.665 3.90001C11.825 3.56001 12.225 3.40001 12.585 3.54001C12.665 3.56001 14.745 4.52001 14.465 6.60001ZM13.005 8.12001C13.145 8.26001 13.245 8.48002 13.245 8.68002C13.245 8.90002 13.165 9.10001 13.005 9.24002C12.865 9.38002 12.645 9.48002 12.445 9.48002C12.245 9.48002 12.025 9.40001 11.885 9.24002C11.745 9.10001 11.645 8.88002 11.645 8.68002C11.645 8.48002 11.725 8.26001 11.885 8.12001C12.025 7.98001 12.245 7.88002 12.445 7.88002C12.645 7.88002 12.845 7.96001 13.005 8.12001Z" fill="#1E0606"/>
</svg>
