<svg width="276" height="375" viewBox="0 0 276 375" fill="none" xmlns="http://www.w3.org/2000/svg">
<path d="M190.883 269.683C190.641 271.133 190.157 273.066 189.189 274.999C189.189 274.999 188.464 276.449 187.012 278.624C186.77 279.107 186.287 279.832 185.803 280.557C184.109 283.457 181.69 287.324 179.272 291.432C177.094 295.057 174.917 298.924 172.498 303.032C168.628 309.798 164.516 317.048 161.129 323.573C157.501 330.581 154.598 336.381 153.389 340.248C151.937 344.839 155.808 355.472 156.775 357.889C157.017 358.131 157.017 358.372 157.017 358.372C158.468 360.547 160.404 362.48 162.339 364.414C165.241 367.555 167.419 369.73 164.274 369.972L161.855 369.005L157.501 367.314L146.132 362.964C144.196 362.239 142.745 360.547 142.261 358.614L140.568 352.331L137.907 359.581L133.795 357.889C137.423 348.706 133.795 345.323 142.987 335.898C145.648 333.239 149.034 313.182 153.147 297.715C154.598 291.915 156.291 286.841 157.985 283.457C159.678 280.074 161.371 277.416 163.306 274.757C163.548 274.274 164.032 273.791 164.274 273.307C166.935 269.683 169.596 266.783 171.289 264.849C172.982 263.158 173.95 262.433 173.95 262.433C182.416 259.533 192.092 260.983 190.883 269.683Z" fill="#F0A073"/>
<path d="M142.501 335.898C142.501 335.898 142.984 335.898 143.226 336.14C145.645 337.59 147.097 340.248 147.339 342.906L148.064 349.914C148.306 353.056 150.483 355.714 153.386 356.681L156.773 357.889C156.773 358.131 156.773 358.131 156.773 358.131C160.885 363.931 168.867 369.247 163.788 369.489L145.645 362.481C143.71 361.756 142.259 360.064 141.775 358.131L140.082 351.848L137.421 359.097L133.309 357.406C136.937 348.706 133.309 345.081 142.501 335.898Z" fill="#C21E1D"/>
<path d="M117.826 221.109L155.804 240.2C155.804 240.2 154.111 246.966 153.627 246.966C141.29 244.792 116.133 237.3 110.086 233.192C102.829 228.6 109.36 216.276 117.826 221.109Z" fill="#456F96"/>
<path d="M135.484 116.952C134.516 114.294 134.033 111.153 131.855 109.461C137.903 109.219 143.708 113.569 145.644 119.127C146.369 121.544 146.611 124.202 148.063 126.136C142.499 125.894 137.419 122.269 135.484 116.952Z" fill="#21201D"/>
<path d="M133.549 143.535L132.824 147.16L131.856 151.027L130.889 155.618L129.921 160.21L128.712 166.735L111.295 154.41L117.826 129.519L133.549 143.535Z" fill="#FFAE80"/>
<path d="M128.469 160.21C134.033 183.167 145.16 182.442 146.612 195.25C147.579 204.675 137.661 208.3 137.661 208.3C134.759 221.592 132.582 233.191 133.549 241.891C133.549 241.891 105.247 236.575 103.312 236.091C107.908 222.8 99.6836 208.3 99.6836 183.892C99.6836 170.843 111.778 152.718 111.778 152.718C111.778 152.718 127.744 156.585 128.469 160.21Z" fill="#FFAE80"/>
<path d="M147.338 195.251C147.338 195.734 147.338 196.459 147.338 196.942C147.096 205.159 137.662 208.3 137.662 208.3C137.662 209.025 137.662 209.509 137.662 210.234C137.662 210.959 137.662 211.442 137.662 211.925C137.662 213.859 137.42 215.792 137.178 217.725C136.936 221.592 136.452 224.975 135.968 228.117C135.485 231.983 134.759 235.85 134.517 239.233C134.517 239.716 134.517 240.2 134.275 240.683C134.275 240.683 133.549 240.683 132.34 240.441C129.679 239.958 124.357 239.233 119.036 238.508C118.794 238.508 118.31 238.508 118.068 238.267C111.053 237.3 104.28 236.333 103.554 236.092C103.796 235.125 104.28 234.158 104.28 233.192C104.522 232.708 104.522 232.225 104.522 231.742C104.764 229.567 105.006 227.392 104.764 225.217C104.764 224.492 104.764 223.767 104.764 223.042C104.522 219.175 103.554 214.825 102.829 210.234C101.861 205.159 100.893 199.601 100.41 193.076C100.41 192.109 100.168 191.143 100.168 190.176C100.168 188.243 99.9258 186.068 99.9258 183.893C99.9258 171.085 107.908 159.243 108.392 158.518C108.392 158.518 111.053 159.485 113.956 160.452C113.956 160.452 126.776 163.835 139.113 180.509C142.983 185.343 146.612 188.484 147.338 195.251Z" fill="#5589B9"/>
<path opacity="0.4" d="M131.858 151.026L130.89 155.618L129.923 160.209C127.746 158.759 124.359 156.101 123.392 154.651C120.489 150.301 119.521 145.71 119.279 140.393C121.698 144.501 126.536 147.884 130.648 150.301C131.132 150.784 131.616 150.784 131.858 151.026Z" fill="#FFAE80"/>
<path d="M145.645 135.319C143.71 132.66 142.5 131.21 142.017 129.035C148.306 98.1028 84.929 108.253 108.877 140.877L114.924 140.152C118.069 147.885 123.149 152.718 133.066 154.41C136.453 154.168 139.356 154.41 141.775 151.993C143.226 149.818 143.952 146.435 143.71 141.36C143.71 140.394 144.194 139.427 145.161 138.944C145.887 138.219 146.854 137.01 145.645 135.319Z" fill="#FFAE80"/>
<path d="M111.296 154.41C109.361 151.751 98.2335 144.26 97.9916 129.519C97.2659 99.0692 139.84 102.936 139.84 116.469C139.84 116.469 139.598 114.294 133.309 124.685C129.68 130.727 123.391 131.452 121.456 139.668C117.827 154.41 111.296 154.41 111.296 154.41Z" fill="#21201D"/>
<path d="M189.428 373.355L170.076 370.939C168.141 370.697 166.205 369.489 165.238 367.797L162.093 362.239L161.851 364.414L161.368 369.006V369.972L157.013 369.489C157.013 368.764 157.255 368.039 157.255 367.314C157.497 363.447 156.771 360.789 156.771 357.889C156.771 354.748 157.255 351.364 160.642 345.806C161.851 343.631 161.609 334.206 161.368 323.573C161.126 317.048 160.884 310.04 161.126 303.999C161.126 298.924 161.609 294.574 162.335 291.432C162.819 289.741 163.303 287.807 163.786 286.357C164.512 284.182 165.238 282.249 165.964 280.316C166.447 279.108 166.931 277.899 167.415 276.691C168.624 274.033 169.834 272.099 170.56 270.408C171.769 268.474 172.495 267.266 172.495 267.266C180.477 262.191 190.153 260.983 191.121 269.683C191.363 271.133 191.121 273.066 190.879 275.241C190.879 275.241 190.637 276.449 189.911 278.141C189.669 279.107 189.186 280.074 188.944 281.282C187.976 284.182 187.009 288.049 185.557 292.399C184.59 295.299 183.622 298.682 182.896 302.065C178.058 318.982 172.737 339.04 172.253 347.256C171.769 352.814 180.235 364.172 180.235 364.172C185.315 368.764 194.265 371.906 189.428 373.355Z" fill="#FFAE80"/>
<path d="M160.399 345.805C160.399 345.805 160.883 345.805 161.367 346.047C164.028 347.013 165.963 348.947 166.931 351.605L169.35 358.372C170.317 361.271 172.978 363.446 176.123 363.688L179.751 363.93C179.751 364.171 179.993 364.171 179.993 364.171C185.315 368.763 194.507 371.904 189.669 373.596L170.317 371.18C168.382 370.938 166.447 369.73 165.479 368.038L162.335 362.48L161.367 370.213L157.013 369.73C158.222 359.58 153.868 357.163 160.399 345.805Z" fill="#EA4A49"/>
<path d="M124.601 136.527C125.327 139.669 125.811 141.602 123.876 142.085C121.698 142.568 118.07 140.393 117.344 137.252C116.619 134.11 118.312 131.935 120.489 131.452C122.666 130.969 123.876 133.385 124.601 136.527Z" fill="#FFAE80"/>
<path d="M123.872 141.119C124.114 141.843 123.63 142.81 122.663 143.052C121.937 143.293 120.97 142.81 120.728 141.843C120.486 141.118 120.97 140.152 121.937 139.91C122.905 139.91 123.63 140.394 123.872 141.119Z" fill="white"/>
<path opacity="0.3" d="M147.338 196.942C147.096 205.159 137.904 208.3 137.904 208.3C137.904 209.025 137.904 209.509 137.904 210.234C137.904 210.717 137.904 211.442 137.904 211.925C137.904 213.859 137.662 215.792 137.662 217.725C137.178 221.592 136.936 224.975 136.452 228.117C135.969 231.983 135.243 235.85 135.001 239.233L132.824 238.75L118.31 235.85L105.49 233.192C105.248 232.708 105.006 232.225 104.764 231.742C105.006 229.567 105.248 227.392 105.006 225.217C105.006 224.492 105.006 223.767 105.006 223.042C104.764 219.175 103.796 214.825 103.071 210.234C102.103 205.159 101.136 199.601 100.652 193.076C100.652 192.109 100.41 191.143 100.41 190.176C100.41 188.243 100.168 186.068 100.168 183.893C100.168 171.085 108.151 159.243 108.634 158.518C100.41 180.751 112.021 185.584 124.6 189.451L132.824 205.159C138.388 204.676 143.709 201.534 147.338 196.942Z" fill="#456F96"/>
<path opacity="0.5" d="M174.916 252.282C174.916 252.282 135.487 255.666 118.796 238.266C114.2 233.674 107.911 234.158 105.008 233.191L117.828 235.849L132.342 238.749C135.487 239.233 153.145 242.858 174.916 252.282Z" fill="#EA4A49"/>
<path d="M165.479 242.133L178.058 245.757L183.622 252.041L181.203 260.499L175.639 261.707C174.429 260.499 174.913 259.291 176.607 258.807L173.22 254.216C169.592 254.457 166.931 251.074 164.512 249.141L165.479 242.133Z" fill="#FFAE80"/>
<path d="M132.341 218.692L165.481 242.133C165.481 242.133 164.755 249.383 164.513 249.383C151.934 245.758 129.438 236.575 123.632 231.742C116.617 226.184 124.842 213.859 132.341 218.692Z" fill="#5589B9"/>
<path d="M191.121 277.898C190.396 282.248 188.944 287.081 187.251 292.639C186.767 292.639 186.525 292.64 186.042 292.398C185.8 292.398 185.558 292.398 185.316 292.398C183.381 292.156 181.204 291.673 179.269 291.431C173.947 290.223 168.625 288.531 163.303 286.356C161.368 285.631 159.433 284.665 157.498 283.698C154.837 282.49 152.176 280.798 149.515 279.348C149.515 279.348 118.069 279.831 105.006 276.69C99.6846 275.482 95.8142 271.132 94.8466 265.815C93.8791 260.499 93.3953 256.39 95.3304 250.349C95.8142 248.415 96.7818 246.24 97.7494 243.824C99.2008 240.441 101.378 237.057 104.281 233.432H105.248L118.069 236.091L132.582 238.991C135.727 239.474 173.705 248.899 186.284 259.048C187.251 259.773 188.219 260.74 188.944 261.465C189.912 262.673 190.638 263.882 191.121 265.09C192.331 268.473 192.089 272.823 191.121 277.898Z" fill="#EA4A49"/>
<path d="M122.181 177.609L135.243 223.042C138.63 232.225 124.842 238.991 120.73 227.15L105.248 182.684C100.894 167.218 118.311 165.043 122.181 177.609Z" fill="#5589B9"/>
<path opacity="0.5" d="M186.042 292.399C185.8 292.399 185.558 292.399 185.316 292.399C183.381 292.157 181.204 291.673 179.269 291.432C173.947 290.223 168.625 288.532 163.303 286.357C161.368 285.632 159.433 284.665 157.498 283.699C154.837 282.49 152.176 280.799 149.515 279.349C149.515 279.349 118.069 279.832 105.006 276.69C99.6846 275.482 95.8142 271.132 94.8466 265.816C93.8791 260.499 93.3953 256.391 95.3304 250.349C100.41 267.024 104.039 282.49 154.111 269.682C164.029 284.665 186.042 292.399 186.042 292.399Z" fill="#EA4A49"/>
<path d="M147.861 289.95V363.657C147.861 369.457 143.023 374.29 137.217 374.29H94.6435C88.8379 374.29 84 369.457 84 363.657V289.95C84 284.15 88.8379 279.317 94.6435 279.317H137.217C143.023 279.317 147.861 283.909 147.861 289.95Z" fill="#F9B233"/>
<path d="M147.619 298.167H84V303.966H147.619V298.167Z" fill="#5E4A4C"/>
<path d="M100.935 279.317H97.0645V374.29H100.935V279.317Z" fill="#5E4A4C"/>
<path d="M135.525 279.317H131.654V367.04H135.525V279.317Z" fill="#5E4A4C"/>
<path d="M265.419 374.057H169.628C164.79 374.057 160.92 370.19 160.92 365.357V305.425C160.92 300.592 164.79 296.725 169.628 296.725H265.419C270.257 296.725 274.127 300.592 274.127 305.425V365.357C274.369 370.19 270.499 374.057 265.419 374.057Z" fill="black"/>
<path d="M229.622 291.65C221.881 288.508 213.173 288.508 205.432 291.65C203.981 292.133 202.529 291.65 201.804 290.441C201.078 289.233 201.804 287.541 203.497 286.816C212.447 283.191 222.607 283.191 231.557 286.816C233.25 287.541 233.976 289.233 233.25 290.441C232.525 291.65 231.073 292.133 229.622 291.65Z" fill="black"/>
<path d="M204.703 296.483H202.768V289.958C202.768 289.474 203.251 288.991 203.735 288.991C204.219 288.991 204.703 289.474 204.703 289.958V296.483Z" fill="#DADADA"/>
<path d="M232.523 296.483H230.588V289.958C230.588 289.474 231.072 288.991 231.555 288.991C232.039 288.991 232.523 289.474 232.523 289.958V296.483Z" fill="#DADADA"/>
<path d="M173.016 307.841C173.016 308.324 172.532 308.808 172.048 308.808H160.921C160.437 308.808 159.953 308.324 159.953 307.841V304.216C159.953 299.625 163.823 295.758 168.42 295.758H172.048C172.532 295.758 173.016 296.241 173.016 296.725V307.841Z" fill="#DADADA"/>
<path d="M262.035 307.841C262.035 308.324 262.519 308.808 263.003 308.808H274.13C274.614 308.808 275.098 308.324 275.098 307.841V304.216C275.098 299.625 271.227 295.758 266.631 295.758H263.003C262.519 295.758 262.035 296.241 262.035 296.725V307.841Z" fill="#DADADA"/>
<path d="M262.035 362.698C262.035 362.215 262.519 361.731 263.003 361.731H274.13C274.614 361.731 275.098 362.215 275.098 362.698V366.323C275.098 370.914 271.227 374.781 266.631 374.781H263.003C262.519 374.781 262.035 374.298 262.035 373.814V362.698Z" fill="#DADADA"/>
<path d="M173.016 362.698C173.016 362.215 172.532 361.731 172.048 361.731H160.921C160.437 361.731 159.953 362.215 159.953 362.698V366.323C159.953 370.914 163.823 374.781 168.42 374.781H172.048C172.532 374.781 173.016 374.298 173.016 373.814V362.698Z" fill="#DADADA"/>
<path d="M178.097 320.157H155.358V314.841C155.358 312.666 153.665 310.974 151.488 310.974H135.281C133.104 310.974 131.411 312.666 131.411 314.841V320.157H108.672C103.351 320.157 99.2383 324.265 99.2383 329.582V364.623C99.2383 369.939 103.351 374.048 108.672 374.048H178.338C183.66 374.048 187.772 369.939 187.772 364.623V329.582C187.531 324.507 183.418 320.157 178.097 320.157ZM135.039 314.841C135.039 314.599 135.281 314.599 135.281 314.599H151.488C151.73 314.599 151.73 314.841 151.73 314.841V320.157H135.039V314.841Z" fill="#EA4A49"/>
<path d="M123.67 320.158H115.93V374.048H123.67V320.158Z" fill="#FDFDFD"/>
<path d="M170.84 320.158H163.1V374.048H170.84V320.158Z" fill="#FDFDFD"/>
<path d="M124.88 336.107H114.721V326.682H124.88V336.107ZM117.14 333.691H122.461V329.099H117.14V333.691Z" fill="#231F20"/>
<path d="M172.05 336.107H161.891V326.682H172.05V336.107ZM164.31 333.691H169.631V329.099H164.31V333.691Z" fill="#231F20"/>
<g filter="url(#filter0_d)">
<path d="M149.405 0.316895H19.4054C11.1581 0.316895 4.45786 6.97493 4.40566 15.222L4.09554 64.222C4.04287 72.5432 10.7739 79.3169 19.0952 79.3169H105L125 99.3169L145 79.3169H149.095C157.342 79.3169 164.042 72.6589 164.094 64.4118L164.404 15.4118C164.457 7.09063 157.726 0.316895 149.405 0.316895Z" fill="white"/>
</g>
</svg>  

    

